<?xml version="1.0" encoding="UTF-8" standalone="no"?>
<!-- Created with Inkscape (http://www.inkscape.org/) -->

<svg
   xmlns:dc="http://purl.org/dc/elements/1.1/"
   xmlns:cc="http://creativecommons.org/ns#"
   xmlns:rdf="http://www.w3.org/1999/02/22-rdf-syntax-ns#"
   xmlns:svg="http://www.w3.org/2000/svg"
   xmlns="http://www.w3.org/2000/svg"
   xmlns:sodipodi="http://sodipodi.sourceforge.net/DTD/sodipodi-0.dtd"
   xmlns:inkscape="http://www.inkscape.org/namespaces/inkscape"
   width="101.21656mm"
   height="101.78275mm"
   viewBox="0 0 101.21656 101.78275"
   version="1.1"
   id="svg8"
   inkscape:version="0.92.2 (5c3e80d, 2017-08-06)"
   sodipodi:docname="icon.svg">
  <defs
     id="defs2" />
  <sodipodi:namedview
     id="base"
     pagecolor="#ffffff"
     bordercolor="#666666"
     borderopacity="1.0"
     inkscape:pageopacity="0.0"
     inkscape:pageshadow="2"
     inkscape:zoom="0.7"
     inkscape:cx="283.42657"
     inkscape:cy="207.42968"
     inkscape:document-units="mm"
     inkscape:current-layer="layer1"
     showgrid="false"
     showguides="true"
     inkscape:guide-bbox="true"
     fit-margin-top="0"
     fit-margin-left="0"
     fit-margin-right="0"
     fit-margin-bottom="0"
     inkscape:window-width="1366"
     inkscape:window-height="715"
     inkscape:window-x="-8"
     inkscape:window-y="-8"
     inkscape:window-maximized="1">
    <sodipodi:guide
       position="44.979162,56.393972"
       orientation="1,0"
       id="guide858"
       inkscape:locked="false" />
    <sodipodi:guide
       position="56.237303,66.141571"
       orientation="1,0"
       id="guide860"
       inkscape:locked="false" />
    <sodipodi:guide
       position="26.03584,56.519872"
       orientation="0,1"
       id="guide862"
       inkscape:locked="false" />
    <sodipodi:guide
       position="44.979162,45.262972"
       orientation="0,1"
       id="guide864"
       inkscape:locked="false" />
  </sodipodi:namedview>
  <metadata
     id="metadata5">
    <rdf:RDF>
      <cc:Work
         rdf:about="">
        <dc:format>image/svg+xml</dc:format>
        <dc:type
           rdf:resource="http://purl.org/dc/dcmitype/StillImage" />
        <dc:title></dc:title>
      </cc:Work>
    </rdf:RDF>
  </metadata>
  <g
     inkscape:label="Camada 1"
     inkscape:groupmode="layer"
     id="layer1"
     transform="translate(-54.145015,-69.99385)">
    <rect
       style="opacity:1;fill:#000000;fill-opacity:1;stroke:none;stroke-width:0.46302083;stroke-linecap:square;stroke-linejoin:miter;stroke-miterlimit:4;stroke-dasharray:3.70416662, 0.46302083;stroke-dashoffset:0.34999999;stroke-opacity:1;paint-order:fill markers stroke"
       id="rect837"
       width="11.244792"
       height="11.197545"
       x="71.012199"
       y="87.152412"
       inkscape:export-xdpi="96"
       inkscape:export-ydpi="96" />
    <rect
       y="143.54628"
       x="127.2495"
       height="11.197545"
       width="11.244792"
       id="rect839"
       style="opacity:1;fill:#000000;fill-opacity:1;stroke:none;stroke-width:0.46302083;stroke-linecap:square;stroke-linejoin:miter;stroke-miterlimit:4;stroke-dasharray:3.70416662, 0.46302083;stroke-dashoffset:0.34999999;stroke-opacity:1;paint-order:fill markers stroke"
       inkscape:export-xdpi="96"
       inkscape:export-ydpi="96" />
    <rect
       style="opacity:1;fill:#000000;fill-opacity:1;stroke:none;stroke-width:0.46302083;stroke-linecap:square;stroke-linejoin:miter;stroke-miterlimit:4;stroke-dasharray:3.70416662, 0.46302083;stroke-dashoffset:0.34999999;stroke-opacity:1;paint-order:fill markers stroke"
       id="rect841"
       width="11.244792"
       height="11.197545"
       x="127.2495"
       y="87.026512"
       inkscape:export-xdpi="96"
       inkscape:export-ydpi="96" />
    <rect
       y="143.54628"
       x="71.012199"
       height="11.197545"
       width="11.244792"
       id="rect843"
       style="opacity:1;fill:#000000;fill-opacity:1;stroke:none;stroke-width:0.46302083;stroke-linecap:square;stroke-linejoin:miter;stroke-miterlimit:4;stroke-dasharray:3.70416662, 0.46302083;stroke-dashoffset:0.34999999;stroke-opacity:1;paint-order:fill markers stroke"
       inkscape:export-xdpi="96"
       inkscape:export-ydpi="96" />
    <path
       style="opacity:1;fill:#000000;stroke:none;stroke-width:0.99999994px;stroke-linecap:butt;stroke-linejoin:miter;stroke-opacity:1"
       d="m 244.45703,265.01953 c -20.6499,0 -39.21094,20.06962 -39.21094,39.21094 l -0.60351,131.86133 h 170 V 265.01953 Z m 16.37891,31.00391 h 82.99804 V 405.08789 H 235.45312 l 0.38477,-84.06641 c 0,-12.20322 11.83304,-24.99804 24.99805,-24.99804 z"
       transform="scale(0.26458333)"
       id="path845"
       inkscape:connector-curvature="0"
       inkscape:export-xdpi="96"
       inkscape:export-ydpi="96" />
    <path
       id="path852"
       d="m 144.82724,69.99385 c 5.46362,0 10.37456,5.310087 10.37456,10.374561 l 0.15968,34.888309 H 110.38232 V 69.99385 Z m -4.33358,8.203118 h -21.9599 V 107.0536 h 28.67577 l -0.10181,-22.242568 c 0,-3.228768 -3.13082,-6.614064 -6.61406,-6.614064 z"
       style="opacity:1;fill:#000000;stroke:none;stroke-width:0.26458332px;stroke-linecap:butt;stroke-linejoin:miter;stroke-opacity:1"
       inkscape:connector-curvature="0"
       inkscape:export-xdpi="96"
       inkscape:export-ydpi="96" />
    <path
       id="path854"
       d="m 64.679255,171.77649 c -5.463619,0 -10.374561,-5.31009 -10.374561,-10.37456 l -0.159679,-34.88831 h 44.979166 v 45.26287 z m 4.333587,-8.20312 H 90.972739 V 134.71674 H 62.296971 l 0.101803,22.24257 c 0,3.22877 3.130825,6.61406 6.614068,6.61406 z"
       style="opacity:1;fill:#000000;stroke:none;stroke-width:0.26458332px;stroke-linecap:butt;stroke-linejoin:miter;stroke-opacity:1"
       inkscape:connector-curvature="0"
       inkscape:export-xdpi="96"
       inkscape:export-ydpi="96" />
    <path
       style="opacity:1;fill:#000000;stroke:none;stroke-width:0.99999994px;stroke-linecap:butt;stroke-linejoin:miter;stroke-opacity:1"
       d="m 417.19336,478.16211 v 64.53711 h 30.80859 v -33.5332 h 72.78516 v -31.00391 z m 139.16406,0 v 31.00391 h 0.0254 l -0.0254,5.51757 v 0.26758 h -0.002 l -0.12695,27.74805 h 30.66992 l 0.29492,-64.53711 z M 417.19336,585.55469 v 63.67969 h 30.80859 v -31.00391 -4 -28.67578 z m 138.83984,0 -0.0351,7.67773 c 0,12.20323 -11.83305,24.99805 -24.99805,24.99805 h -47.42773 v 31.00391 h 63.80664 c 20.6499,0 39.21093,-20.06964 39.21093,-39.21094 l 0.11133,-24.46875 z"
       transform="scale(0.26458333)"
       id="path856"
       inkscape:connector-curvature="0"
       inkscape:export-xdpi="96"
       inkscape:export-ydpi="96" />
    <g
       id="g902"
       transform="matrix(0.33459615,0,0,0.33273486,154.16716,103.18235)"
       inkscape:export-xdpi="96"
       inkscape:export-ydpi="96">
      <rect
         style="opacity:1;fill:#000000;fill-opacity:1;stroke:none;stroke-width:0.46302083;stroke-linecap:square;stroke-linejoin:miter;stroke-miterlimit:4;stroke-dasharray:3.70416662, 0.46302083;stroke-dashoffset:0.34999999;stroke-opacity:1;paint-order:fill markers stroke"
         id="rect878"
         width="11.244792"
         height="11.197545"
         x="71.012199"
         y="87.152412"
         inkscape:export-xdpi="96"
         inkscape:export-ydpi="96" />
      <rect
         y="143.54628"
         x="127.2495"
         height="11.197545"
         width="11.244792"
         id="rect880"
         style="opacity:1;fill:#000000;fill-opacity:1;stroke:none;stroke-width:0.46302083;stroke-linecap:square;stroke-linejoin:miter;stroke-miterlimit:4;stroke-dasharray:3.70416662, 0.46302083;stroke-dashoffset:0.34999999;stroke-opacity:1;paint-order:fill markers stroke"
         inkscape:export-xdpi="96"
         inkscape:export-ydpi="96" />
      <rect
         style="opacity:1;fill:#000000;fill-opacity:1;stroke:none;stroke-width:0.46302083;stroke-linecap:square;stroke-linejoin:miter;stroke-miterlimit:4;stroke-dasharray:3.70416662, 0.46302083;stroke-dashoffset:0.34999999;stroke-opacity:1;paint-order:fill markers stroke"
         id="rect882"
         width="11.244792"
         height="11.197545"
         x="127.2495"
         y="87.026512"
         inkscape:export-xdpi="96"
         inkscape:export-ydpi="96" />
      <rect
         y="143.54628"
         x="71.012199"
         height="11.197545"
         width="11.244792"
         id="rect884"
         style="opacity:1;fill:#000000;fill-opacity:1;stroke:none;stroke-width:0.46302083;stroke-linecap:square;stroke-linejoin:miter;stroke-miterlimit:4;stroke-dasharray:3.70416662, 0.46302083;stroke-dashoffset:0.34999999;stroke-opacity:1;paint-order:fill markers stroke"
         inkscape:export-xdpi="96"
         inkscape:export-ydpi="96" />
      <path
         style="opacity:1;fill:#000000;stroke:none;stroke-width:0.99999994px;stroke-linecap:butt;stroke-linejoin:miter;stroke-opacity:1"
         d="m 244.45703,265.01953 c -20.6499,0 -39.21094,20.06962 -39.21094,39.21094 l -0.60351,131.86133 h 170 V 265.01953 Z m 16.37891,31.00391 h 82.99804 V 405.08789 H 235.45312 l 0.38477,-84.06641 c 0,-12.20322 11.83304,-24.99804 24.99805,-24.99804 z"
         transform="scale(0.26458333)"
         id="path886"
         inkscape:connector-curvature="0"
         inkscape:export-xdpi="96"
         inkscape:export-ydpi="96" />
      <path
         id="path888"
         d="m 144.82724,69.99385 c 5.46362,0 10.37456,5.310087 10.37456,10.374561 l 0.15968,34.888309 H 110.38232 V 69.99385 Z m -4.33358,8.203118 h -21.9599 V 107.0536 h 28.67577 l -0.10181,-22.242568 c 0,-3.228768 -3.13082,-6.614064 -6.61406,-6.614064 z"
         style="opacity:1;fill:#000000;stroke:none;stroke-width:0.26458332px;stroke-linecap:butt;stroke-linejoin:miter;stroke-opacity:1"
         inkscape:connector-curvature="0"
         inkscape:export-xdpi="96"
         inkscape:export-ydpi="96" />
      <path
         id="path890"
         d="m 64.679255,171.77649 c -5.463619,0 -10.374561,-5.31009 -10.374561,-10.37456 l -0.159679,-34.88831 h 44.979166 v 45.26287 z m 4.333587,-8.20312 H 90.972739 V 134.71674 H 62.296971 l 0.101803,22.24257 c 0,3.22877 3.130825,6.61406 6.614068,6.61406 z"
         style="opacity:1;fill:#000000;stroke:none;stroke-width:0.26458332px;stroke-linecap:butt;stroke-linejoin:miter;stroke-opacity:1"
         inkscape:connector-curvature="0"
         inkscape:export-xdpi="96"
         inkscape:export-ydpi="96" />
      <path
         style="opacity:1;fill:#000000;stroke:none;stroke-width:0.99999994px;stroke-linecap:butt;stroke-linejoin:miter;stroke-opacity:1"
         d="m 417.19336,478.16211 v 64.53711 h 30.80859 v -33.5332 h 72.78516 v -31.00391 z m 139.16406,0 v 31.00391 h 0.0254 l -0.0254,5.51757 v 0.26758 h -0.002 l -0.12695,27.74805 h 30.66992 l 0.29492,-64.53711 z M 417.19336,585.55469 v 63.67969 h 30.80859 v -31.00391 -4 -28.67578 z m 138.83984,0 -0.0351,7.67773 c 0,12.20323 -11.83305,24.99805 -24.99805,24.99805 h -47.42773 v 31.00391 h 63.80664 c 20.6499,0 39.21093,-20.06964 39.21093,-39.21094 l 0.11133,-24.46875 z"
         transform="scale(0.26458333)"
         id="path892"
         inkscape:connector-curvature="0"
         inkscape:export-xdpi="96"
         inkscape:export-ydpi="96" />
    </g>
  </g>
</svg>
