<svg xmlns="http://www.w3.org/2000/svg" width="128" height="128" viewBox="0 0 33.866666 33.866664" fill="context-fill" fill-opacity="context-fill-opacity">
  <path d="M5.7064941 5.7092556h3.74153428v3.72581357H5.7064941zm18.71211047 18.76420578h3.74153429v3.72581357h-3.7415343zm0-18.80609709h3.74153429v3.72581356h-3.7415343zM5.7064941 24.47346138h3.74153428v3.72581357H5.7064941z" paint-order="fill markers stroke"/>
  <path d="M3.59930287.04189512c-1.8179366 0-3.45197813 1.76685102-3.45197813 3.45197813L.09419408 15.10243012H15.0603306V.04189512Zm1.44193531 2.72946324h7.30682353v9.60160853H2.80663377l.03387365-7.40087865c0-1.07432387 1.04173466-2.20072988 2.20073076-2.20072988zM30.26733143.00000388c1.81793683 0 3.45197776 1.76685106 3.45197776 3.4519781l.0531311 11.60855661H18.8063058V.0000039ZM28.82539829 2.7294672h-7.30682425v9.6016074h9.54142832l-.03387574-7.40087774c0-1.07432367-1.04173296-2.20072966-2.20072833-2.20072966zM3.59930286 33.86663635c-1.8179365 0-3.4519781-1.76685205-3.4519781-3.45197777L.09419399 18.80610164h14.9661365v15.06053471zm1.44193546-2.72946398h7.30682325v-9.60160675H2.80663392l.03387341 7.40087842c0 1.07432433 1.04173462 2.20072833 2.200731 2.20072833zm13.7650969-12.33103635v5.6815953h2.71226803v-2.95213206h6.40772142v-2.72946324zm12.25146072 0v2.72946324h.00223612l-.00223612.48574533v.0235567h-.00017607l-.01117618 2.44283003h2.70006006l.0259636-5.6815953zm-12.25146072 9.45442362v5.60611139h2.71226803v-5.60611139zm12.22291766 0-.00309007.67591739c0 1.07432474-1.04173554 2.20073076-2.20073076 2.20073076H24.6500798v2.72946324h5.61728756c1.8179366 0 3.45197725-1.76685278 3.45197725-3.45197813l.00980106-2.15413326z"/>
</svg>
