<?xml version="1.0" encoding="UTF-8" standalone="no"?>
<!-- Created with Inkscape (http://www.inkscape.org/) -->

<svg
   xmlns:dc="http://purl.org/dc/elements/1.1/"
   xmlns:cc="http://creativecommons.org/ns#"
   xmlns:rdf="http://www.w3.org/1999/02/22-rdf-syntax-ns#"
   xmlns:svg="http://www.w3.org/2000/svg"
   xmlns="http://www.w3.org/2000/svg"
   xmlns:sodipodi="http://sodipodi.sourceforge.net/DTD/sodipodi-0.dtd"
   xmlns:inkscape="http://www.inkscape.org/namespaces/inkscape"
   width="101.21656mm"
   height="101.78275mm"
   viewBox="0 0 101.21656 101.78275"
   version="1.1"
   id="svg8"
   inkscape:version="0.92.2 (5c3e80d, 2017-08-06)"
   sodipodi:docname="icon.svg">
  <defs
     id="defs2" />
  <sodipodi:namedview
     id="base"
     pagecolor="#ffffff"
     bordercolor="#666666"
     borderopacity="1.0"
     inkscape:pageopacity="0.0"
     inkscape:pageshadow="2"
     inkscape:zoom="0.49497475"
     inkscape:cx="443.0052"
     inkscape:cy="249.01573"
     inkscape:document-units="mm"
     inkscape:current-layer="layer1"
     showgrid="false"
     showguides="true"
     inkscape:guide-bbox="true"
     fit-margin-top="0"
     fit-margin-left="0"
     fit-margin-right="0"
     fit-margin-bottom="0"
     inkscape:window-width="1366"
     inkscape:window-height="715"
     inkscape:window-x="-8"
     inkscape:window-y="-8"
     inkscape:window-maximized="1"
     inkscape:snap-global="false">
    <sodipodi:guide
       position="44.979162,56.393972"
       orientation="1,0"
       id="guide858"
       inkscape:locked="false" />
    <sodipodi:guide
       position="56.237303,66.141571"
       orientation="1,0"
       id="guide860"
       inkscape:locked="false" />
    <sodipodi:guide
       position="26.03584,56.519872"
       orientation="0,1"
       id="guide862"
       inkscape:locked="false" />
    <sodipodi:guide
       position="44.979162,45.262972"
       orientation="0,1"
       id="guide864"
       inkscape:locked="false" />
  </sodipodi:namedview>
  <metadata
     id="metadata5">
    <rdf:RDF>
      <cc:Work
         rdf:about="">
        <dc:format>image/svg+xml</dc:format>
        <dc:type
           rdf:resource="http://purl.org/dc/dcmitype/StillImage" />
        <dc:title />
      </cc:Work>
    </rdf:RDF>
  </metadata>
  <g
     inkscape:label="Camada 1"
     inkscape:groupmode="layer"
     id="layer1"
     transform="translate(-54.145015,-69.99385)">
    <rect
       style="opacity:1;fill:#000000;fill-opacity:1;stroke:none;stroke-width:0.46302083;stroke-linecap:square;stroke-linejoin:miter;stroke-miterlimit:4;stroke-dasharray:3.70416662, 0.46302083;stroke-dashoffset:0.34999999;stroke-opacity:1;paint-order:fill markers stroke"
       id="rect837"
       width="11.244792"
       height="11.197545"
       x="71.012199"
       y="87.152412"
       inkscape:export-xdpi="96"
       inkscape:export-ydpi="96" />
    <rect
       y="143.54628"
       x="127.2495"
       height="11.197545"
       width="11.244792"
       id="rect839"
       style="opacity:1;fill:#000000;fill-opacity:1;stroke:none;stroke-width:0.46302083;stroke-linecap:square;stroke-linejoin:miter;stroke-miterlimit:4;stroke-dasharray:3.70416662, 0.46302083;stroke-dashoffset:0.34999999;stroke-opacity:1;paint-order:fill markers stroke"
       inkscape:export-xdpi="96"
       inkscape:export-ydpi="96" />
    <rect
       style="opacity:1;fill:#000000;fill-opacity:1;stroke:none;stroke-width:0.46302083;stroke-linecap:square;stroke-linejoin:miter;stroke-miterlimit:4;stroke-dasharray:3.70416662, 0.46302083;stroke-dashoffset:0.34999999;stroke-opacity:1;paint-order:fill markers stroke"
       id="rect841"
       width="11.244792"
       height="11.197545"
       x="127.2495"
       y="87.026512"
       inkscape:export-xdpi="96"
       inkscape:export-ydpi="96" />
    <rect
       y="143.54628"
       x="71.012199"
       height="11.197545"
       width="11.244792"
       id="rect843"
       style="opacity:1;fill:#000000;fill-opacity:1;stroke:none;stroke-width:0.46302083;stroke-linecap:square;stroke-linejoin:miter;stroke-miterlimit:4;stroke-dasharray:3.70416662, 0.46302083;stroke-dashoffset:0.34999999;stroke-opacity:1;paint-order:fill markers stroke"
       inkscape:export-xdpi="96"
       inkscape:export-ydpi="96" />
    <path
       style="opacity:1;fill:#000000;stroke:none;stroke-width:0.99999994px;stroke-linecap:butt;stroke-linejoin:miter;stroke-opacity:1"
       d="m 244.45703,265.01953 c -20.6499,0 -39.21094,20.06962 -39.21094,39.21094 l -0.60351,131.86133 h 170 V 265.01953 Z m 16.37891,31.00391 h 82.99804 V 405.08789 H 235.45312 l 0.38477,-84.06641 c 0,-12.20322 11.83304,-24.99804 24.99805,-24.99804 z"
       transform="scale(0.26458333)"
       id="path845"
       inkscape:connector-curvature="0"
       inkscape:export-xdpi="96"
       inkscape:export-ydpi="96" />
    <path
       id="path852"
       d="m 144.82724,69.99385 c 5.46362,0 10.37456,5.310087 10.37456,10.374561 l 0.15968,34.888309 H 110.38232 V 69.99385 Z m -4.33358,8.203118 h -21.9599 V 107.0536 h 28.67577 l -0.10181,-22.242568 c 0,-3.228768 -3.13082,-6.614064 -6.61406,-6.614064 z"
       style="opacity:1;fill:#000000;stroke:none;stroke-width:0.26458332px;stroke-linecap:butt;stroke-linejoin:miter;stroke-opacity:1"
       inkscape:connector-curvature="0"
       inkscape:export-xdpi="96"
       inkscape:export-ydpi="96" />
    <path
       id="path854"
       d="m 64.679255,171.77649 c -5.463619,0 -10.374561,-5.31009 -10.374561,-10.37456 l -0.159679,-34.88831 h 44.979166 v 45.26287 z m 4.333587,-8.20312 H 90.972739 V 134.71674 H 62.296971 l 0.101803,22.24257 c 0,3.22877 3.130825,6.61406 6.614068,6.61406 z"
       style="opacity:1;fill:#000000;stroke:none;stroke-width:0.26458332px;stroke-linecap:butt;stroke-linejoin:miter;stroke-opacity:1"
       inkscape:connector-curvature="0"
       inkscape:export-xdpi="96"
       inkscape:export-ydpi="96" />
    <path
       style="opacity:1;fill:#000000;stroke:none;stroke-width:0.99999994px;stroke-linecap:butt;stroke-linejoin:miter;stroke-opacity:1"
       d="m 417.19336,478.16211 v 64.53711 h 30.80859 v -33.5332 h 72.78516 v -31.00391 z m 139.16406,0 v 31.00391 h 0.0254 l -0.0254,5.51757 v 0.26758 h -0.002 l -0.12695,27.74805 h 30.66992 l 0.29492,-64.53711 z M 417.19336,585.55469 v 63.67969 h 30.80859 v -31.00391 -4 -28.67578 z m 138.83984,0 -0.0351,7.67773 c 0,12.20323 -11.83305,24.99805 -24.99805,24.99805 h -47.42773 v 31.00391 h 63.80664 c 20.6499,0 39.21093,-20.06964 39.21093,-39.21094 l 0.11133,-24.46875 z"
       transform="scale(0.26458333)"
       id="path856"
       inkscape:connector-curvature="0"
       inkscape:export-xdpi="96"
       inkscape:export-ydpi="96" />
    <path
       style="opacity:1;fill:#000000;stroke:#000000;stroke-width:0.09192598;stroke-linecap:butt;stroke-linejoin:miter;stroke-opacity:1"
       d="m 283.61337,101.16039 v 1.83588 h 1.83445 l -0.006,-1.41791 c 0,-0.10164 -0.0497,-0.20623 -0.12735,-0.28535 -0.0776,-0.0791 -0.18284,-0.13262 -0.29326,-0.13262 z m -1.87945,0.005 c -0.11042,0 -0.21571,0.0535 -0.29326,0.13262 -0.0775,0.0791 -0.12711,0.18371 -0.12711,0.28535 l -0.007,1.41791 h 1.83469 v -1.83588 z m 2.20766,0.31934 a 0.00502248,0.00502248 0 0 1 9.8e-4,0 h 0.90059 c 0.073,0 0.14196,0.0353 0.19271,0.0871 0.0507,0.0518 0.0835,0.12021 0.0835,0.18768 l 0.004,0.90706 a 0.00502248,0.00502248 0 0 1 -10e-4,0.003 0.00502248,0.00502248 0 0 1 -0.001,0.001 0.00502248,0.00502248 0 0 1 -0.002,4.9e-4 h -1.17613 a 0.00502248,0.00502248 0 0 1 -0.004,-0.001 0.00502248,0.00502248 0 0 1 -9.8e-4,-0.001 0.00502248,0.00502248 0 0 1 -4.9e-4,-0.002 v -1.17685 a 0.00502248,0.00502248 0 0 1 10e-4,-0.004 0.00502248,0.00502248 0 0 1 10e-4,-9.8e-4 0.00502248,0.00502248 0 0 1 0.001,-4.9e-4 z m -2.03004,0.005 h 0.90059 a 0.00502248,0.00502248 0 0 1 0.004,0.001 0.00502248,0.00502248 0 0 1 9.8e-4,0.001 0.00502248,0.00502248 0 0 1 4.9e-4,0.002 v 1.17685 a 0.00502248,0.00502248 0 0 1 -0.001,0.004 0.00502248,0.00502248 0 0 1 -10e-4,9.8e-4 0.00502248,0.00502248 0 0 1 -0.002,4.9e-4 h -1.17588 a 0.00502248,0.00502248 0 0 1 -0.004,-0.001 0.00502248,0.00502248 0 0 1 -9.8e-4,-0.001 0.00502248,0.00502248 0 0 1 -4.9e-4,-0.002 l 0.004,-0.90705 c 0,-0.0675 0.0328,-0.13588 0.0835,-0.18769 0.0508,-0.0518 0.11967,-0.0871 0.19271,-0.0871 z m 2.39343,0.36507 v 0.44671 h 0.45101 v -0.44671 z m -2.30629,0.005 v 0.44647 h 0.45102 v -0.44647 z m -0.69184,1.60512 0.007,1.41791 c 0,0.10164 0.0496,0.20623 0.12712,0.28535 0.0775,0.0791 0.18283,0.13262 0.29325,0.13262 h 1.40762 v -1.83588 z m 2.30653,0 v 0.68633 h 0.32414 v -0.35669 a 0.00502248,0.00502248 0 0 1 0.001,-0.004 0.00502248,0.00502248 0 0 1 10e-4,-9.8e-4 0.00502248,0.00502248 0 0 1 0.002,-4.9e-4 h 0.78472 v -0.32462 z m 1.50984,0 v 0.32772 a 0.00502248,0.00502248 0 0 1 0,4.9e-4 0.00502248,0.00502248 0 0 1 2.4e-4,0.001 l -2.4e-4,0.0594 v 0.003 l -10e-4,0.29421 h 0.3227 l 0.003,-0.68633 z m -3.48792,0.32461 a 0.00502248,0.00502248 0 0 1 9.8e-4,0 h 1.17589 a 0.00502248,0.00502248 0 0 1 0.004,0.001 0.00502248,0.00502248 0 0 1 9.8e-4,0.001 0.00502248,0.00502248 0 0 1 4.9e-4,0.002 v 1.17685 a 0.00502248,0.00502248 0 0 1 -0.001,0.004 0.00502248,0.00502248 0 0 1 -10e-4,9.8e-4 0.00502248,0.00502248 0 0 1 -0.002,4.9e-4 h -0.90059 c -0.073,0 -0.14196,-0.0353 -0.19271,-0.0871 -0.0508,-0.0518 -0.0836,-0.12021 -0.0836,-0.18769 l -0.004,-0.90705 a 0.00502248,0.00502248 0 0 1 0.001,-0.003 0.00502248,0.00502248 0 0 1 10e-4,-0.001 0.00502248,0.00502248 0 0 1 0.001,-4.9e-4 z m 0.36339,0.3701 v 0.4467 h 0.45102 v -0.44668 z m 2.30629,0 v 0.4467 h 0.45101 v -0.44668 z m -0.6916,0.46418 v 0.67699 h 0.32414 v -0.3294 -0.0433 -0.30426 z m 1.50649,0 -4.9e-4,0.0778 c 0,0.0675 -0.0328,0.13588 -0.0836,0.18768 -0.0507,0.0518 -0.11967,0.0871 -0.19271,0.0871 h -0.50966 v 0.32437 h 0.68729 c 0.11041,0 0.21565,-0.0535 0.29325,-0.13262 0.0776,-0.0791 0.12736,-0.18371 0.12736,-0.28535 l 10e-4,-0.25902 z"
       id="path892"
       inkscape:connector-curvature="0"
       inkscape:export-filename="C:\Users\crist\Development\qrcode-tab-chrome\icons\icon16.png"
       inkscape:export-xdpi="96"
       inkscape:export-ydpi="96" />
    <g
       id="g856"
       transform="translate(-28.59784,12.027129)">
      <rect
         style="opacity:1;fill:#000000;fill-opacity:1;stroke:none;stroke-width:0.15492538;stroke-linecap:square;stroke-linejoin:miter;stroke-miterlimit:4;stroke-dasharray:1.23940314, 0.15492539;stroke-dashoffset:0.34999999;stroke-opacity:1;paint-order:fill markers stroke"
         id="rect858"
         width="3.7624738"
         height="3.7466652"
         x="217.5706"
         y="132.71327"
         inkscape:export-xdpi="96"
         inkscape:export-ydpi="96" />
      <rect
         y="151.58249"
         x="236.38741"
         height="3.7466652"
         width="3.7624738"
         id="rect860"
         style="opacity:1;fill:#000000;fill-opacity:1;stroke:none;stroke-width:0.15492538;stroke-linecap:square;stroke-linejoin:miter;stroke-miterlimit:4;stroke-dasharray:1.23940314, 0.15492539;stroke-dashoffset:0.34999999;stroke-opacity:1;paint-order:fill markers stroke"
         inkscape:export-xdpi="96"
         inkscape:export-ydpi="96" />
      <rect
         style="opacity:1;fill:#000000;fill-opacity:1;stroke:none;stroke-width:0.15492538;stroke-linecap:square;stroke-linejoin:miter;stroke-miterlimit:4;stroke-dasharray:1.23940314, 0.15492539;stroke-dashoffset:0.34999999;stroke-opacity:1;paint-order:fill markers stroke"
         id="rect862"
         width="3.7624738"
         height="3.7466652"
         x="236.38741"
         y="132.67114"
         inkscape:export-xdpi="96"
         inkscape:export-ydpi="96" />
      <rect
         y="151.58249"
         x="217.5706"
         height="3.7466652"
         width="3.7624738"
         id="rect864"
         style="opacity:1;fill:#000000;fill-opacity:1;stroke:none;stroke-width:0.15492538;stroke-linecap:square;stroke-linejoin:miter;stroke-miterlimit:4;stroke-dasharray:1.23940314, 0.15492539;stroke-dashoffset:0.34999999;stroke-opacity:1;paint-order:fill markers stroke"
         inkscape:export-xdpi="96"
         inkscape:export-ydpi="96" />
      <path
         style="opacity:1;fill:#000000;stroke:none;stroke-width:0.0885288px;stroke-linecap:butt;stroke-linejoin:miter;stroke-opacity:1"
         d="m 215.45159,127.0142 c -1.82812,0 -3.4713,1.77674 -3.4713,3.47129 l -0.0534,11.67353 h 15.0499 V 127.0142 Z m 1.45,2.74474 h 7.34772 v 9.65534 h -9.59482 l 0.034,-7.4423 c 0,-1.08033 1.04756,-2.21304 2.21304,-2.21304 z"
         id="path866"
         inkscape:connector-curvature="0"
         inkscape:export-xdpi="96"
         inkscape:export-ydpi="96" />
      <path
         id="path868"
         d="m 242.26888,126.97207 c 1.8281,0 3.47128,1.77674 3.47128,3.4713 l 0.0534,11.67352 h -15.04987 v -15.14482 z m -1.45002,2.74474 h -7.34773 v 9.65534 h 9.59485 l -0.0342,-7.44229 c 0,-1.08034 -1.04756,-2.21305 -2.21306,-2.21305 z"
         style="opacity:1;fill:#000000;stroke:none;stroke-width:0.0885288px;stroke-linecap:butt;stroke-linejoin:miter;stroke-opacity:1"
         inkscape:connector-curvature="0"
         inkscape:export-xdpi="96"
         inkscape:export-ydpi="96" />
      <path
         id="path870"
         d="m 215.45159,161.02824 c -1.82812,0 -3.4713,-1.77674 -3.4713,-3.4713 l -0.0534,-11.67352 h 15.0499 v 15.14482 z m 1.45,-2.74474 h 7.34772 v -9.65534 h -9.59482 l 0.034,7.4423 c 0,1.08034 1.04756,2.21304 2.21304,2.21304 z"
         style="opacity:1;fill:#000000;stroke:none;stroke-width:0.0885288px;stroke-linecap:butt;stroke-linejoin:miter;stroke-opacity:1"
         inkscape:connector-curvature="0"
         inkscape:export-xdpi="96"
         inkscape:export-ydpi="96" />
      <path
         style="opacity:1;fill:#000000;stroke:none;stroke-width:0.0885288px;stroke-linecap:butt;stroke-linejoin:miter;stroke-opacity:1"
         d="m 230.74373,145.88345 v 5.7134 h 2.72744 v -2.96866 h 6.44359 v -2.74474 z m 12.32003,0 v 2.74474 h 0.002 l -0.002,0.48847 v 0.0237 h -1.8e-4 l -0.012,2.4565 h 2.71518 l 0.026,-5.7134 z m -12.32003,9.50734 v 5.63749 h 2.72744 v -2.74474 -0.35412 -2.53863 z m 12.29133,0 -0.004,0.6797 c 0,1.08035 -1.04756,2.21305 -2.21306,2.21305 h -4.19871 v 2.74474 h 5.64873 c 1.8281,0 3.47128,-1.77674 3.47128,-3.4713 l 0.01,-2.16619 z"
         id="path872"
         inkscape:connector-curvature="0"
         inkscape:export-xdpi="96"
         inkscape:export-ydpi="96" />
    </g>
    <path
       inkscape:connector-curvature="0"
       id="path841"
       d="M 265.11906,97.508224 V 101.18 h 3.6689 l -0.0129,-2.835823 c 0,-0.203277 -0.0995,-0.412468 -0.25471,-0.570708 -0.1552,-0.15824 -0.36567,-0.265245 -0.5865,-0.265245 z m -3.75891,0.01005 c -0.22083,0 -0.43142,0.107004 -0.5865,0.265244 -0.15509,0.158238 -0.25424,0.36743 -0.25424,0.570706 l -0.0134,2.835826 h 3.66938 v -3.671776 z m 4.41532,0.638694 a 0.01004496,0.01004496 0 0 1 0.002,0 h 1.80118 c 0.14609,0 0.28392,0.07067 0.38542,0.174275 0.10149,0.103604 0.16709,0.240422 0.16709,0.375364 l 0.009,1.814103 a 0.01004496,0.01004496 0 0 1 -0.002,0.006 0.01004496,0.01004496 0 0 1 -0.003,0.003 0.01004496,0.01004496 0 0 1 -0.005,9.8e-4 h -2.35225 a 0.01004496,0.01004496 0 0 1 -0.007,-0.003 0.01004496,0.01004496 0 0 1 -0.002,-0.002 0.01004496,0.01004496 0 0 1 -9.8e-4,-0.005 v -2.353687 a 0.01004496,0.01004496 0 0 1 0.003,-0.0072 0.01004496,0.01004496 0 0 1 0.002,-0.002 0.01004496,0.01004496 0 0 1 0.003,-9.8e-4 z m -4.06006,0.01005 h 1.80117 a 0.01004496,0.01004496 0 0 1 0.007,0.0029 0.01004496,0.01004496 0 0 1 0.002,0.0025 0.01004496,0.01004496 0 0 1 9.8e-4,0.0048 v 2.353692 a 0.01004496,0.01004496 0 0 1 -0.003,0.007 0.01004496,0.01004496 0 0 1 -0.002,0.002 0.01004496,0.01004496 0 0 1 -0.005,9.8e-4 h -2.35178 a 0.01004496,0.01004496 0 0 1 -0.007,-0.003 0.01004496,0.01004496 0 0 1 -0.002,-0.002 0.01004496,0.01004496 0 0 1 -9.8e-4,-0.005 l 0.008,-1.814104 c 0,-0.134943 0.0656,-0.27176 0.16709,-0.375365 0.1015,-0.103604 0.23933,-0.174277 0.38542,-0.174277 z m 4.78685,0.730142 v 0.893405 h 0.90202 V 98.89716 Z m -4.61258,0.01054 v 0.892925 h 0.90203 V 98.9077 Z m -1.38367,3.21023 0.0134,2.83582 c 0,0.20328 0.0991,0.41247 0.25423,0.57071 0.15508,0.15824 0.36567,0.26524 0.5865,0.26524 h 2.81524 v -3.67177 z m 4.61305,0 v 1.37266 h 0.64827 v -0.71338 a 0.01004496,0.01004496 0 0 1 0.003,-0.007 0.01004496,0.01004496 0 0 1 0.002,-0.002 0.01004496,0.01004496 0 0 1 0.005,-9.8e-4 h 1.56945 v -0.64923 z m 3.01968,0 v 0.65545 a 0.01004496,0.01004496 0 0 1 0,9.8e-4 0.01004496,0.01004496 0 0 1 4.9e-4,0.003 l -4.9e-4,0.11874 v 0.006 l -0.002,0.58842 h 0.6454 l 0.006,-1.37266 z m -6.97584,0.64922 a 0.01004496,0.01004496 0 0 1 0.002,0 h 2.35177 a 0.01004496,0.01004496 0 0 1 0.007,0.003 0.01004496,0.01004496 0 0 1 0.002,0.002 0.01004496,0.01004496 0 0 1 9.8e-4,0.005 v 2.35369 a 0.01004496,0.01004496 0 0 1 -0.003,0.007 0.01004496,0.01004496 0 0 1 -0.002,0.002 0.01004496,0.01004496 0 0 1 -0.005,9.9e-4 h -1.80117 c -0.14609,0 -0.28393,-0.0707 -0.38542,-0.17428 -0.1015,-0.10376 -0.16709,-0.24058 -0.16709,-0.37552 l -0.008,-1.8141 a 0.01004496,0.01004496 0 0 1 0.002,-0.006 0.01004496,0.01004496 0 0 1 0.003,-0.003 0.01004496,0.01004496 0 0 1 0.003,-9.8e-4 z m 0.72678,0.7402 v 0.89341 h 0.90203 v -0.89341 z m 4.61258,0 v 0.89341 h 0.90202 v -0.89341 z m -1.3832,0.92836 v 1.35399 h 0.64827 v -0.6588 -0.0867 -0.60853 z m 3.01297,0 -9.8e-4,0.1556 c 0,0.13494 -0.0656,0.27176 -0.16709,0.37536 -0.1015,0.10361 -0.23933,0.17428 -0.38542,0.17428 h -1.01933 v 0.64875 h 1.37458 c 0.22084,0 0.4313,-0.107 0.58651,-0.26524 0.15521,-0.15824 0.25471,-0.36744 0.25471,-0.57071 l 0.002,-0.51804 z"
       style="opacity:1;fill:#000000;stroke:#000000;stroke-width:0.18385196;stroke-linecap:butt;stroke-linejoin:miter;stroke-opacity:1"
       inkscape:export-filename="C:\Users\crist\Development\qrcode-tab-chrome\icons\icon32.png"
       inkscape:export-xdpi="96"
       inkscape:export-ydpi="96" />
    <path
       style="opacity:1;fill:#000000;stroke:#000000;stroke-width:0.27577794;stroke-linecap:butt;stroke-linejoin:miter;stroke-opacity:1"
       d="m 241.27936,93.588792 v 5.50766 h 5.50335 l -0.0194,-4.253731 c 0,-0.304915 -0.14926,-0.618702 -0.38207,-0.856062 -0.23281,-0.237361 -0.54851,-0.397867 -0.87976,-0.397867 z m -5.63836,0.01508 c -0.33125,0 -0.64713,0.160506 -0.87976,0.397866 -0.23263,0.237357 -0.38135,0.551144 -0.38135,0.856059 l -0.0201,4.253731 h 5.50406 v -5.507656 z m 6.62298,0.958041 a 0.01506744,0.01506744 0 0 1 0.003,0 h 2.70176 c 0.21913,0 0.42589,0.106009 0.57813,0.261412 0.15224,0.155406 0.25064,0.360633 0.25064,0.563047 l 0.0129,2.721152 a 0.01506744,0.01506744 0 0 1 -0.004,0.0093 0.01506744,0.01506744 0 0 1 -0.004,0.0043 0.01506744,0.01506744 0 0 1 -0.007,0.0015 h -3.52838 a 0.01506744,0.01506744 0 0 1 -0.0108,-0.0043 0.01506744,0.01506744 0 0 1 -0.003,-0.0037 0.01506744,0.01506744 0 0 1 -0.001,-0.0072 v -3.530531 a 0.01506744,0.01506744 0 0 1 0.004,-0.01077 0.01506744,0.01506744 0 0 1 0.004,-0.0029 0.01506744,0.01506744 0 0 1 0.004,-0.0015 z m -6.0901,0.01508 h 2.70176 a 0.01506744,0.01506744 0 0 1 0.0108,0.0043 0.01506744,0.01506744 0 0 1 0.003,0.0037 0.01506744,0.01506744 0 0 1 0.001,0.0072 v 3.530531 a 0.01506744,0.01506744 0 0 1 -0.004,0.01077 0.01506744,0.01506744 0 0 1 -0.004,0.0029 0.01506744,0.01506744 0 0 1 -0.007,0.0015 h -3.52766 a 0.01506744,0.01506744 0 0 1 -0.0108,-0.0043 0.01506744,0.01506744 0 0 1 -0.003,-0.0037 0.01506744,0.01506744 0 0 1 -0.001,-0.0072 l 0.0122,-2.721152 c 0,-0.202414 0.0984,-0.40764 0.25064,-0.563046 0.15224,-0.155407 0.359,-0.261416 0.57813,-0.261416 z m 7.18028,1.095214 v 1.340108 h 1.35303 v -1.340108 z m -6.91887,0.01581 v 1.339387 h 1.35304 v -1.339387 z m -2.07551,4.815343 0.0201,4.25373 c 0,0.30492 0.14872,0.6187 0.38135,0.85606 0.23263,0.23736 0.54851,0.39787 0.87976,0.39787 h 4.22285 v -5.50766 z m 6.91958,0 v 2.05899 h 0.97241 v -1.07008 a 0.01506744,0.01506744 0 0 1 0.004,-0.0108 0.01506744,0.01506744 0 0 1 0.004,-0.003 0.01506744,0.01506744 0 0 1 0.007,-0.002 h 2.35417 v -0.97384 z m 4.52951,0 v 0.98317 a 0.01506744,0.01506744 0 0 1 0,0.001 0.01506744,0.01506744 0 0 1 7.4e-4,0.004 l -7.4e-4,0.17811 v 0.009 l -0.004,0.88263 h 0.96809 l 0.009,-2.05899 z m -10.46376,0.97384 a 0.01506744,0.01506744 0 0 1 0.003,0 h 3.52766 a 0.01506744,0.01506744 0 0 1 0.0108,0.004 0.01506744,0.01506744 0 0 1 0.003,0.004 0.01506744,0.01506744 0 0 1 0.001,0.007 v 3.53053 a 0.01506744,0.01506744 0 0 1 -0.004,0.0108 0.01506744,0.01506744 0 0 1 -0.004,0.003 0.01506744,0.01506744 0 0 1 -0.007,0.001 h -2.70176 c -0.21913,0 -0.42589,-0.10601 -0.57813,-0.26141 -0.15224,-0.15541 -0.25064,-0.36063 -0.25064,-0.56305 l -0.0122,-2.72115 a 0.01506744,0.01506744 0 0 1 0.004,-0.009 0.01506744,0.01506744 0 0 1 0.004,-0.004 0.01506744,0.01506744 0 0 1 0.004,-0.002 z m 1.09018,1.11029 v 1.34011 h 1.35304 v -1.34011 z m 6.91887,0 v 1.34011 h 1.35303 v -1.34011 z m -2.0748,1.39254 v 2.03099 h 0.97241 v -0.98821 -0.12999 -0.91279 z m 4.51946,0 -0.001,0.2334 c 0,0.20241 -0.0984,0.40764 -0.25064,0.56305 -0.15224,0.1554 -0.35899,0.26141 -0.57813,0.26141 h -1.52898 v 0.97313 h 2.06187 c 0.33125,0 0.64695,-0.16051 0.87976,-0.39787 0.23281,-0.23736 0.38206,-0.55115 0.38206,-0.85606 l 0.004,-0.77706 z"
       id="path843"
       inkscape:connector-curvature="0"
       inkscape:export-filename="C:\Users\crist\Development\qrcode-tab-chrome\icons\icon48.png"
       inkscape:export-xdpi="96"
       inkscape:export-ydpi="96" />
    <path
       inkscape:connector-curvature="0"
       id="path846"
       d="m 204.39986,75.327972 v 14.687094 h 14.67561 l -0.0517,-11.343283 c 0,-0.813106 -0.39801,-1.649873 -1.01884,-2.282833 -0.62083,-0.632961 -1.4627,-1.060978 -2.34603,-1.060978 z m -15.03564,0.0402 c -0.88334,0 -1.72568,0.428017 -2.34602,1.060978 -0.62035,0.632951 -1.01693,1.469717 -1.01693,2.282823 l -0.0536,11.343283 h 14.67751 V 75.368174 Z m 17.66128,2.554777 a 0.04017984,0.04017984 0 0 1 0.008,0 h 7.2047 c 0.58436,0 1.1357,0.282691 1.54168,0.697098 0.40598,0.414417 0.66838,0.961688 0.66838,1.501458 l 0.0345,7.256406 a 0.04017984,0.04017984 0 0 1 -0.01,0.02491 0.04017984,0.04017984 0 0 1 -0.0115,0.01147 0.04017984,0.04017984 0 0 1 -0.0191,0.0039 h -9.40902 a 0.04017984,0.04017984 0 0 1 -0.0287,-0.01147 0.04017984,0.04017984 0 0 1 -0.008,-0.0098 0.04017984,0.04017984 0 0 1 -0.004,-0.01912 v -9.414735 a 0.04017984,0.04017984 0 0 1 0.0115,-0.02873 0.04017984,0.04017984 0 0 1 0.01,-0.0078 0.04017984,0.04017984 0 0 1 0.0115,-0.0039 z m -16.24026,0.0402 h 7.2047 a 0.04017984,0.04017984 0 0 1 0.0287,0.01147 0.04017984,0.04017984 0 0 1 0.008,0.0098 0.04017984,0.04017984 0 0 1 0.004,0.01912 v 9.41475 a 0.04017984,0.04017984 0 0 1 -0.0115,0.02873 0.04017984,0.04017984 0 0 1 -0.01,0.0078 0.04017984,0.04017984 0 0 1 -0.0191,0.0039 h -9.40709 a 0.04017984,0.04017984 0 0 1 -0.0287,-0.01147 0.04017984,0.04017984 0 0 1 -0.008,-0.0098 0.04017984,0.04017984 0 0 1 -0.004,-0.01912 l 0.0326,-7.256406 c 0,-0.53977 0.26239,-1.087041 0.66837,-1.501458 0.40598,-0.414417 0.95733,-0.697108 1.54167,-0.697108 z m 19.14742,2.920569 v 3.573621 h 3.60809 v -3.573621 z m -18.45031,0.04216 v 3.5717 h 3.60809 v -3.5717 z m -5.53471,12.840907 0.0536,11.343285 c 0,0.81311 0.39659,1.64987 1.01694,2.28282 0.62034,0.63296 1.46268,1.06099 2.34602,1.06099 h 11.26093 V 93.766793 Z m 18.45222,0 v 5.490663 h 2.59308 v -2.85354 a 0.04017984,0.04017984 0 0 1 0.0115,-0.02873 0.04017984,0.04017984 0 0 1 0.01,-0.0078 0.04017984,0.04017984 0 0 1 0.0191,-0.0039 h 6.27778 v -2.596911 z m 12.0787,0 v 2.621807 a 0.04017984,0.04017984 0 0 1 0,0.0039 0.04017984,0.04017984 0 0 1 0.002,0.01147 l -0.002,0.474956 v 0.0249 l -0.01,2.353688 h 2.58159 l 0.0249,-5.490663 z m -27.90337,2.596911 a 0.04017984,0.04017984 0 0 1 0.008,0 h 9.40709 a 0.04017984,0.04017984 0 0 1 0.0287,0.01147 0.04017984,0.04017984 0 0 1 0.008,0.0098 0.04017984,0.04017984 0 0 1 0.004,0.01912 v 9.414754 a 0.04017984,0.04017984 0 0 1 -0.0115,0.0287 0.04017984,0.04017984 0 0 1 -0.01,0.008 0.04017984,0.04017984 0 0 1 -0.0191,0.004 h -7.20471 c -0.58434,0 -1.13569,-0.28269 -1.54167,-0.69711 -0.40598,-0.41441 -0.66837,-0.96168 -0.66837,-1.50145 l -0.0326,-7.256407 a 0.04017984,0.04017984 0 0 1 0.01,-0.02491 0.04017984,0.04017984 0 0 1 0.0115,-0.01147 0.04017984,0.04017984 0 0 1 0.0115,-0.0039 z m 2.90716,2.960782 v 3.573622 h 3.60809 v -3.573614 z m 18.45031,0 v 3.573622 h 3.60809 v -3.573614 z m -5.5328,3.713432 v 5.41597 h 2.59308 v -2.63521 -0.34665 -2.43411 z m 12.05188,0 -0.004,0.62241 c 0,0.53976 -0.26241,1.08703 -0.66838,1.50145 -0.40599,0.41442 -0.95733,0.69711 -1.54168,0.69711 h -4.0773 v 2.595 h 5.49832 c 0.88333,0 1.7252,-0.42803 2.34603,-1.06099 0.62083,-0.63296 1.01884,-1.46973 1.01884,-2.28282 l 0.01,-2.07216 z"
       style="opacity:1;fill:#000000;stroke:#000000;stroke-width:0.73540783;stroke-linecap:butt;stroke-linejoin:miter;stroke-opacity:1"
       inkscape:export-filename="C:\Users\crist\Development\qrcode-tab-chrome\icons\icon128.png"
       inkscape:export-xdpi="96"
       inkscape:export-ydpi="96" />
  </g>
</svg>
