<svg xmlns="http://www.w3.org/2000/svg" viewBox="0 0 101.217 101.783">
  <path d="M16.867 17.158h11.245v11.198H16.867zM73.104 73.552h11.245V84.75H73.104zM73.104 17.033h11.245v11.198H73.104zM16.867 73.552h11.245V84.75H16.867z" paint-order="fill markers stroke"/>
  <path d="M10.534.126C5.071.126.16 5.436.16 10.5L0 45.39h44.98V.126Zm4.334 8.203h21.96v28.857H8.152l.102-22.243c0-3.229 3.13-6.614 6.614-6.614zM90.682 0c5.464 0 10.375 5.31 10.375 10.375l.16 34.888h-44.98V0ZM86.35 8.203h-21.96V37.06h28.676l-.102-22.243c0-3.229-3.131-6.614-6.614-6.614zM10.534 101.783C5.071 101.783.16 96.473.16 91.408L0 56.52h44.98v45.263zm4.334-8.203h21.96V64.723H8.152l.102 22.242c0 3.23 3.13 6.615 6.614 6.615zM56.237 56.52v17.075h8.152v-8.872h19.258V56.52zm36.82 0v8.203h.008l-.007 1.46v.07l-.034 7.342h8.115l.078-17.075zm-36.82 28.414v16.849h8.152V84.934zm36.735 0-.01 2.032c0 3.228-3.13 6.614-6.613 6.614H73.8v8.203h16.882c5.464 0 10.375-5.31 10.375-10.375l.03-6.474z"/>
  <path stroke="#000" stroke-width=".092" d="M229.468 31.167v1.835h1.835l-.006-1.417a.421.421 0 0 0-.128-.286.42.42 0 0 0-.293-.132zm-1.88.005a.42.42 0 0 0-.292.132.421.421 0 0 0-.127.286l-.007 1.417h1.834v-1.835zm2.209.319h.901c.073 0 .142.035.193.087.05.052.083.12.083.188l.004.907a.005.005 0 0 1 0 .003.005.005 0 0 1-.002 0 .005.005 0 0 1-.002.001h-1.176a.005.005 0 0 1-.004 0 .005.005 0 0 1 0-.002.005.005 0 0 1-.001-.002v-1.177a.005.005 0 0 1 0-.004.005.005 0 0 1 .002 0 .005.005 0 0 1 0-.001zm-2.03.005h.9a.005.005 0 0 1 .004 0 .005.005 0 0 1 .001.002.005.005 0 0 1 0 .002v1.177a.005.005 0 0 1 0 .004.005.005 0 0 1-.001 0 .005.005 0 0 1-.002.001h-1.176a.005.005 0 0 1-.004 0 .005.005 0 0 1-.001-.002.005.005 0 0 1 0-.002l.003-.907c0-.067.033-.136.084-.188a.275.275 0 0 1 .192-.087zm2.393.365v.447h.451v-.447zm-2.306.005v.446h.45v-.446zm-.692 1.605.007 1.418c0 .102.05.206.127.285a.42.42 0 0 0 .293.133h1.408v-1.836zm2.306 0v.686h.324v-.356a.005.005 0 0 1 .001-.004.005.005 0 0 1 .001-.001.005.005 0 0 1 .002 0h.785v-.325zm1.51 0v.328a.005.005 0 0 1 0 .001v.357h.322l.003-.686zm-3.488.325a.005.005 0 0 1 .001 0h1.176a.005.005 0 0 1 .004 0 .005.005 0 0 1 .001.002.005.005 0 0 1 0 .002v1.177a.005.005 0 0 1 0 .004.005.005 0 0 1-.001 0 .005.005 0 0 1-.002.001h-.901a.275.275 0 0 1-.193-.087.276.276 0 0 1-.083-.188l-.004-.907a.005.005 0 0 1 0-.003.005.005 0 0 1 .002 0 .005.005 0 0 1 0-.001zm.364.37v.446h.45v-.446zm2.306 0v.446h.451v-.446zm-.692.464v.677h.324v-.677zm1.507 0v.078a.276.276 0 0 1-.084.187.275.275 0 0 1-.193.088h-.51v.324h.688a.42.42 0 0 0 .293-.133.421.421 0 0 0 .127-.285l.001-.26z"/>
  <path d="M134.828 74.746h3.762v3.747h-3.762zM153.644 93.615h3.762v3.747h-3.762zM153.644 74.704h3.762v3.747h-3.762zM134.828 93.615h3.762v3.747h-3.762z" paint-order="fill markers stroke"/>
  <path d="M132.709 69.047c-1.828 0-3.472 1.777-3.472 3.472l-.053 11.673h15.05V69.047Zm1.45 2.745h7.347v9.656h-9.594l.034-7.443c0-1.08 1.047-2.213 2.213-2.213zM159.526 69.005c1.828 0 3.471 1.777 3.471 3.472l.054 11.673H148V69.005zm-1.45 2.745h-7.348v9.655h9.595l-.034-7.442c0-1.08-1.048-2.213-2.213-2.213zM132.709 103.062c-1.828 0-3.472-1.777-3.472-3.472l-.053-11.673h15.05v15.145zm1.45-2.745h7.347V90.66h-9.594l.034 7.443c0 1.08 1.047 2.213 2.213 2.213zM148 87.917v5.713h2.728v-2.969h6.444v-2.744zm12.32 0v2.744h.003l-.002.489v.024l-.012 2.456h2.715l.026-5.713zM148 97.424v5.638h2.728v-5.638zm12.292 0-.004.68c0 1.08-1.047 2.213-2.213 2.213h-4.199v2.745h5.65c1.827 0 3.47-1.777 3.47-3.472l.01-2.166z"/>
  <path stroke="#000" stroke-width=".184" d="M210.974 27.514v3.672h3.669l-.013-2.836c0-.203-.1-.412-.255-.57a.839.839 0 0 0-.586-.266zm-3.759.01a.838.838 0 0 0-.586.266.843.843 0 0 0-.255.57l-.013 2.836h3.67v-3.672zm4.415.64a.01.01 0 0 1 .002 0h1.802a.55.55 0 0 1 .385.173c.102.104.167.24.167.376l.01 1.814a.01.01 0 0 1-.003.006.01.01 0 0 1-.003.003.01.01 0 0 1-.005 0h-2.352a.01.01 0 0 1-.007-.002.01.01 0 0 1-.002-.002.01.01 0 0 1-.001-.005v-2.354a.01.01 0 0 1 .003-.007.01.01 0 0 1 .002-.002.01.01 0 0 1 .003-.001zm-4.06.01h1.802a.01.01 0 0 1 .007.002.01.01 0 0 1 .002.003.01.01 0 0 1 0 .004v2.354a.01.01 0 0 1-.002.007.01.01 0 0 1-.002.002.01.01 0 0 1-.005.001h-2.352a.01.01 0 0 1-.007-.003.01.01 0 0 1-.002-.002.01.01 0 0 1-.001-.005l.008-1.814c0-.135.065-.272.167-.375a.55.55 0 0 1 .385-.175zm4.787.73v.893h.902v-.894Zm-4.612.01v.893h.902v-.893Zm-1.384 3.21.013 2.836c0 .203.1.412.255.57a.838.838 0 0 0 .586.266h2.815v-3.672zm4.613 0v1.373h.648v-.714a.01.01 0 0 1 .003-.007.01.01 0 0 1 .002-.002.01.01 0 0 1 .005 0h1.57v-.65zm3.02 0v.656a.01.01 0 0 1 0 .004v.124l-.002.589h.645l.006-1.373zm-6.976.65a.01.01 0 0 1 .002 0h2.352a.01.01 0 0 1 .007.002.01.01 0 0 1 .002.002.01.01 0 0 1 0 .005v2.354a.01.01 0 0 1-.002.007.01.01 0 0 1-.002.002.01.01 0 0 1-.005.001h-1.802a.55.55 0 0 1-.385-.174.554.554 0 0 1-.167-.376l-.008-1.814a.01.01 0 0 1 .002-.006.01.01 0 0 1 .003-.003.01.01 0 0 1 .003 0zm.727.74v.893h.902v-.893zm4.612 0v.893h.902v-.893zm-1.383.928v1.354h.648v-1.354zm3.013 0-.001.155a.553.553 0 0 1-.167.376.55.55 0 0 1-.385.174h-1.02v.649h1.375c.22 0 .431-.107.586-.265a.843.843 0 0 0 .255-.571l.002-.518z"/>
  <path stroke="#000" stroke-width=".276" d="M187.134 23.595v5.508h5.504l-.02-4.254c0-.305-.149-.619-.382-.856-.233-.238-.548-.398-.88-.398zm-5.638.015c-.331 0-.647.16-.88.398-.232.237-.381.551-.381.856l-.02 4.254h5.504V23.61zm6.623.958a.015.015 0 0 1 .003 0h2.702c.219 0 .426.106.578.261a.83.83 0 0 1 .25.564l.013 2.72a.015.015 0 0 1-.004.01.015.015 0 0 1-.004.004.015.015 0 0 1-.007.002h-3.528a.015.015 0 0 1-.01-.005.015.015 0 0 1-.004-.003.015.015 0 0 1 0-.007v-3.531a.015.015 0 0 1 .003-.01.015.015 0 0 1 .004-.004.015.015 0 0 1 .004-.001zm-6.09.015h2.702a.015.015 0 0 1 .01.004.015.015 0 0 1 .003.004.015.015 0 0 1 .001.007v3.53a.015.015 0 0 1-.004.012.015.015 0 0 1-.004.003.015.015 0 0 1-.007.001h-3.527a.015.015 0 0 1-.011-.004.015.015 0 0 1-.003-.004.015.015 0 0 1-.001-.007l.012-2.721a.83.83 0 0 1 .25-.563.825.825 0 0 1 .579-.262zm7.18 1.095v1.34h1.353v-1.34zm-6.919.016v1.34h1.353v-1.34zm-2.075 4.816.02 4.253c0 .305.149.619.381.856.233.238.549.398.88.398h4.223V30.51zm6.92 0v2.059h.972v-1.07a.015.015 0 0 1 .004-.011.015.015 0 0 1 .004-.003.015.015 0 0 1 .007-.002h2.354v-.974zm4.529 0v.983a.015.015 0 0 1 0 .005v.187l-.004.882h.968l.009-2.059zm-10.464.973a.015.015 0 0 1 .003 0h3.528a.015.015 0 0 1 .01.004.015.015 0 0 1 .004.004.015.015 0 0 1 0 .007v3.53a.015.015 0 0 1-.003.012.015.015 0 0 1-.004.003.015.015 0 0 1-.007 0h-2.702a.825.825 0 0 1-.578-.26.83.83 0 0 1-.251-.564l-.012-2.72a.015.015 0 0 1 .004-.01.015.015 0 0 1 .004-.004.015.015 0 0 1 .004-.002zm1.09 1.11v1.34h1.353v-1.34zm6.92 0v1.34h1.352v-1.34zm-2.076 1.393v2.031h.973V33.986zm4.52 0-.001.234a.83.83 0 0 1-.25.563.825.825 0 0 1-.579.261h-1.529v.973h2.062c.331 0 .647-.16.88-.398.232-.237.382-.55.382-.856l.004-.777z"/>
  <path stroke="#000" stroke-width=".735" d="M150.255 5.334v14.687h14.675l-.051-11.343c0-.813-.398-1.65-1.02-2.283-.62-.633-1.462-1.06-2.345-1.06zm-15.036.04c-.883 0-1.725.428-2.346 1.061-.62.633-1.017 1.47-1.017 2.283l-.053 11.343h14.677V5.374ZM152.88 7.93a.04.04 0 0 1 .008 0h7.205c.585 0 1.136.283 1.542.697.406.415.668.962.668 1.502l.035 7.256a.04.04 0 0 1-.01.025.04.04 0 0 1-.012.011.04.04 0 0 1-.019.004h-9.409a.04.04 0 0 1-.029-.011.04.04 0 0 1-.008-.01.04.04 0 0 1-.004-.019V7.969a.04.04 0 0 1 .012-.029.04.04 0 0 1 .01-.007.04.04 0 0 1 .011-.004zm-16.24.04h7.205a.04.04 0 0 1 .029.012.04.04 0 0 1 .008.01.04.04 0 0 1 .004.019v9.414a.04.04 0 0 1-.012.03.04.04 0 0 1-.01.007.04.04 0 0 1-.019.004h-9.407a.04.04 0 0 1-.029-.012.04.04 0 0 1-.008-.01.04.04 0 0 1-.004-.019l.033-7.256c0-.54.262-1.087.668-1.501.406-.415.958-.697 1.542-.697zm19.148 2.92v3.574h3.608V10.89zm-18.45.043v3.572h3.607v-3.572zm-5.535 12.84.053 11.344c0 .813.397 1.65 1.017 2.283.62.633 1.463 1.061 2.346 1.061h11.261V23.773Zm18.452 0v5.492h2.593V26.41a.04.04 0 0 1 .011-.029.04.04 0 0 1 .01-.007.04.04 0 0 1 .02-.004h6.277v-2.597zm12.079 0v2.623a.04.04 0 0 1 0 .004.04.04 0 0 1 .002.011l-.002.475v.025l-.01 2.354h2.581l.025-5.491zM134.43 26.37a.04.04 0 0 1 .008 0h9.407a.04.04 0 0 1 .029.011.04.04 0 0 1 .008.01.04.04 0 0 1 .004.02v9.414a.04.04 0 0 1-.012.029.04.04 0 0 1-.01.008.04.04 0 0 1-.019.004h-7.204c-.585 0-1.136-.283-1.542-.697-.406-.415-.668-.962-.668-1.502l-.033-7.256a.04.04 0 0 1 .01-.025.04.04 0 0 1 .012-.012.04.04 0 0 1 .011-.004zm2.907 2.96v3.574h3.608v-3.573zm18.45 0v3.574h3.609v-3.573zm-5.532 3.714v5.416h2.593v-5.416zm12.052 0-.004.622c0 .54-.263 1.088-.669 1.502-.406.414-.957.697-1.541.697h-4.078v2.595h5.499c.883 0 1.725-.428 2.346-1.061.62-.633 1.019-1.47 1.019-2.283l.01-2.072z"/>
</svg>
